<?xml version="1.0" standalone="no"?>
<!DOCTYPE svg PUBLIC "-//W3C//DTD SVG 20010904//EN"
 "http://www.w3.org/TR/2001/REC-SVG-20010904/DTD/svg10.dtd">
<svg version="1.0" xmlns="http://www.w3.org/2000/svg"
 width="225.000000pt" height="225.000000pt" viewBox="0 0 225.000000 225.000000"
 preserveAspectRatio="xMidYMid meet">

<g transform="translate(0.000000,225.000000) scale(0.100000,-0.100000)"
fill="#000000" stroke="none">
<path d="M1160 1328 c0 -316 -4 -486 -11 -513 -24 -84 -133 -156 -212 -139
-44 9 -98 38 -124 66 -77 82 -67 233 19 286 18 11 66 30 106 42 l72 22 0 112
0 112 -69 -8 c-210 -25 -352 -156 -391 -362 -22 -117 23 -267 107 -357 61 -66
103 -92 187 -118 84 -26 133 -26 214 -2 126 39 220 118 277 236 46 94 55 160
55 423 0 122 2 222 5 222 3 0 29 -12 57 -26 55 -28 160 -54 221 -54 l37 0 0
104 0 104 -42 7 c-141 22 -251 132 -273 273 l-7 42 -114 0 -114 0 0 -472z"/>
</g>
</svg>
