<?xml version="1.0" standalone="no"?>
<!DOCTYPE svg PUBLIC "-//W3C//DTD SVG 20010904//EN"
 "http://www.w3.org/TR/2001/REC-SVG-20010904/DTD/svg10.dtd">
<svg version="1.0" xmlns="http://www.w3.org/2000/svg"
 width="204.000000pt" height="192.000000pt" viewBox="0 0 204.000000 192.000000"
 preserveAspectRatio="xMidYMid meet">

<g transform="translate(0.000000,192.000000) scale(0.100000,-0.100000)"
fill="#000000" stroke="none">
<path d="M1231 1690 c-161 -59 -268 -230 -247 -393 l7 -49 -53 7 c-262 34
-462 128 -640 303 l-88 85 -16 -38 c-59 -142 -30 -297 78 -409 26 -27 48 -51
48 -53 0 -6 -67 11 -114 28 l-49 18 6 -52 c15 -122 128 -266 239 -303 49 -16
51 -18 28 -26 -14 -5 -49 -8 -78 -6 -30 2 -52 -1 -52 -7 0 -24 63 -116 102
-150 51 -45 134 -85 189 -92 22 -3 38 -10 36 -16 -5 -16 -157 -96 -227 -118
-43 -14 -105 -24 -185 -28 l-120 -6 80 -41 c160 -82 298 -114 494 -114 207 0
340 31 497 114 212 113 392 311 485 534 41 98 78 268 83 376 l4 88 55 49 c58
52 123 127 115 134 -2 3 -26 -4 -54 -14 -27 -10 -69 -22 -94 -26 l-45 -7 45
40 c44 39 118 147 107 158 -3 3 -25 -5 -48 -17 -24 -12 -75 -32 -113 -45 l-70
-24 -30 29 c-17 17 -58 42 -91 57 -81 37 -204 43 -284 14z"/>
</g>
</svg>
