<?xml version="1.0" standalone="no"?>
<!DOCTYPE svg PUBLIC "-//W3C//DTD SVG 20010904//EN"
 "http://www.w3.org/TR/2001/REC-SVG-20010904/DTD/svg10.dtd">
<svg version="1.0" xmlns="http://www.w3.org/2000/svg"
 width="204.000000pt" height="192.000000pt" viewBox="0 0 204.000000 192.000000"
 preserveAspectRatio="xMidYMid meet">

<g transform="translate(0.000000,192.000000) scale(0.100000,-0.100000)"
fill="#000000" stroke="none">
<path d="M745 1561 c-162 -16 -260 -87 -310 -226 -15 -42 -19 -92 -22 -325 -6
-317 2 -395 47 -486 33 -68 78 -110 156 -146 48 -23 56 -23 404 -23 342 0 357
1 400 21 84 40 126 79 159 146 46 94 53 163 49 481 -4 260 -6 286 -26 336 -44
112 -109 174 -217 207 -58 18 -503 28 -640 15z m628 -126 c27 -9 64 -33 83
-53 58 -60 64 -98 64 -427 0 -332 -5 -364 -66 -426 -67 -69 -98 -74 -434 -74
-336 0 -367 5 -434 74 -61 62 -66 94 -66 425 0 176 4 307 11 331 24 91 90 146
196 165 27 5 172 7 323 6 235 -2 282 -5 323 -21z"/>
<path d="M1297 1332 c-39 -43 -7 -122 48 -122 29 0 75 40 75 65 0 20 -19 57
-34 67 -21 14 -73 8 -89 -10z"/>
<path d="M935 1257 c-56 -19 -81 -33 -127 -75 -122 -111 -130 -315 -16 -438
92 -100 241 -129 359 -71 241 118 235 461 -9 569 -57 25 -154 32 -207 15z
m171 -116 c157 -71 157 -296 -1 -370 -153 -72 -325 69 -284 233 22 89 107 156
199 156 25 0 63 -9 86 -19z"/>
</g>
</svg>
