<?xml version="1.0" standalone="no"?>
<!DOCTYPE svg PUBLIC "-//W3C//DTD SVG 20010904//EN"
 "http://www.w3.org/TR/2001/REC-SVG-20010904/DTD/svg10.dtd">
<svg version="1.0" xmlns="http://www.w3.org/2000/svg"
 width="204.000000pt" height="192.000000pt" viewBox="0 0 204.000000 192.000000"
 preserveAspectRatio="xMidYMid meet">

<g transform="translate(0.000000,192.000000) scale(0.100000,-0.100000)"
fill="#000000" stroke="none">
<path d="M1144 1905 c-133 -29 -248 -114 -304 -225 -49 -96 -60 -161 -60 -339
l0 -161 -143 0 c-98 0 -147 -4 -155 -12 -14 -14 -17 -364 -4 -385 5 -9 52 -13
152 -15 l145 -3 3 -382 2 -383 210 0 210 0 2 383 3 382 164 3 c101 1 170 7
178 13 10 9 13 55 13 194 0 139 -3 185 -13 194 -8 6 -77 12 -178 13 l-164 3
-3 95 c-4 123 4 174 33 208 23 27 25 27 169 32 116 4 149 8 156 20 5 8 10 92
10 187 0 160 -1 173 -19 183 -28 15 -333 11 -407 -5z"/>
</g>
</svg>
